<?xml version="1.0" encoding="UTF-8" standalone="no"?>
<svg
   width="16"
   height="16"
   fill="currentColor"
   class="bi bi-buildings-fill"
   viewBox="0 0 16 16"
   version="1.1"
   id="svg4"
   sodipodi:docname="buildings-fill.svg"
   inkscape:version="1.1.2 (0a00cf5339, 2022-02-04)"
   xmlns:inkscape="http://www.inkscape.org/namespaces/inkscape"
   xmlns:sodipodi="http://sodipodi.sourceforge.net/DTD/sodipodi-0.dtd"
   xmlns="http://www.w3.org/2000/svg"
   xmlns:svg="http://www.w3.org/2000/svg">
  <defs
     id="defs8" />
  <sodipodi:namedview
     id="namedview6"
     pagecolor="#ffffff"
     bordercolor="#666666"
     borderopacity="1.0"
     inkscape:pageshadow="2"
     inkscape:pageopacity="0.0"
     inkscape:pagecheckerboard="0"
     showgrid="false"
     inkscape:zoom="53.5"
     inkscape:cx="8.0093458"
     inkscape:cy="8.0093458"
     inkscape:window-width="1920"
     inkscape:window-height="1013"
     inkscape:window-x="1920"
     inkscape:window-y="148"
     inkscape:window-maximized="1"
     inkscape:current-layer="svg4" />
  <path
     d="M15 .5a.5.5 0 0 0-.724-.447l-8 4A.5.5 0 0 0 6 4.5v3.14L.342 9.526A.5.5 0 0 0 0 10v5.5a.5.5 0 0 0 .5.5h9a.5.5 0 0 0 .5-.5V14h1v1.5a.5.5 0 0 0 .5.5h3a.5.5 0 0 0 .5-.5V.5ZM2 11h1v1H2v-1Zm2 0h1v1H4v-1Zm-1 2v1H2v-1h1Zm1 0h1v1H4v-1Zm9-10v1h-1V3h1ZM8 5h1v1H8V5Zm1 2v1H8V7h1ZM8 9h1v1H8V9Zm2 0h1v1h-1V9Zm-1 2v1H8v-1h1Zm1 0h1v1h-1v-1Zm3-2v1h-1V9h1Zm-1 2h1v1h-1v-1Zm-2-4h1v1h-1V7Zm3 0v1h-1V7h1Zm-2-2v1h-1V5h1Zm1 0h1v1h-1V5Z"
     id="path2"
     style="fill:#ffffff" />
</svg>
